<svg xmlns="http://www.w3.org/2000/svg" xmlns:xlink="http://www.w3.org/1999/xlink" width="500" zoomAndPan="magnify" viewBox="0 0 375 374.999991" height="500" preserveAspectRatio="xMidYMid meet" version="1.0"><defs><g/><clipPath id="10f8e4393c"><path d="M 77.183594 16.785156 L 321.75 16.785156 L 321.75 258.097656 L 77.183594 258.097656 Z M 77.183594 16.785156 " clip-rule="nonzero"/></clipPath><clipPath id="d61411943a"><path d="M 37.5 78 L 114.308594 78 L 114.308594 286.945312 L 37.5 286.945312 Z M 37.5 78 " clip-rule="nonzero"/></clipPath></defs><rect x="-37.5" width="450" fill="#ffffff" y="-37.499999" height="449.999989" fill-opacity="1"/><rect x="-37.5" width="450" fill="#ffffff" y="-37.499999" height="449.999989" fill-opacity="1"/><g clip-path="url(#10f8e4393c)"><path fill="#f364a2" d="M 179.613281 34.320312 C 179.695312 34.253906 179.792969 34.207031 179.898438 34.179688 C 221.261719 23.773438 254.242188 17.976562 277.925781 16.949219 C 299.203125 16.023438 312.933594 18.949219 318.726562 25.644531 C 322.417969 29.902344 322.859375 35.550781 320.035156 42.429688 C 313.148438 59.207031 286.492188 82.875 250.464844 104.199219 C 213.082031 126.328125 174.25 140.828125 146.585938 142.988281 C 115.71875 145.398438 95.253906 154.710938 85.765625 170.667969 C 74.601562 189.433594 77.707031 217.675781 95.253906 257.011719 C 95.421875 257.390625 95.253906 257.835938 94.875 258.003906 C 94.496094 258.171875 94.050781 258.003906 93.882812 257.625 C 76.121094 217.8125 73.042969 189.117188 84.472656 169.902344 C 89.257812 161.855469 96.71875 155.410156 106.652344 150.734375 C 117.011719 145.855469 130.410156 142.746094 146.46875 141.492188 C 173.910156 139.347656 212.503906 124.925781 249.703125 102.90625 C 285.460938 81.738281 311.878906 58.347656 318.644531 41.859375 C 321.234375 35.546875 320.882812 30.425781 317.59375 26.628906 C 312.113281 20.296875 298.789062 17.546875 277.992188 18.449219 C 254.410156 19.472656 221.53125 25.253906 180.265625 35.632812 C 179.863281 35.734375 179.453125 35.492188 179.355469 35.089844 C 179.277344 34.792969 179.390625 34.496094 179.613281 34.320312 " fill-opacity="1" fill-rule="nonzero"/></g><path fill="#f364a2" d="M 179.613281 34.320312 C 179.703125 34.246094 179.8125 34.195312 179.9375 34.167969 C 282.351562 14.058594 307.535156 27.992188 310.628906 43.222656 C 312.210938 51.011719 308.472656 60.734375 299.511719 72.113281 C 291.46875 82.332031 279.410156 93.519531 264.636719 104.472656 C 250.238281 115.144531 234.039062 125.039062 217.789062 133.082031 C 200.78125 141.503906 184.476562 147.488281 170.632812 150.394531 C 131.128906 158.6875 107.636719 171.109375 96.695312 189.484375 C 87.023438 205.730469 86.5625 227.851562 95.289062 257.101562 C 95.40625 257.5 95.179688 257.917969 94.78125 258.039062 C 94.386719 258.15625 93.96875 257.929688 93.851562 257.53125 C 89.351562 242.457031 87.292969 229.589844 87.550781 218.191406 C 87.8125 206.800781 90.378906 197.160156 95.40625 188.714844 C 101.246094 178.90625 110.324219 170.921875 123.152344 164.300781 C 135.191406 158.089844 150.621094 153.0625 170.324219 148.925781 C 197.710938 143.175781 233.507812 125.683594 263.742188 103.265625 C 295.058594 80.042969 312.039062 57.710938 309.160156 43.519531 C 307.230469 34.023438 296.609375 28.238281 277.59375 26.339844 C 255.605469 24.144531 222.847656 27.273438 180.226562 35.644531 C 179.820312 35.726562 179.425781 35.460938 179.34375 35.050781 C 179.289062 34.765625 179.402344 34.488281 179.613281 34.320312 " fill-opacity="1" fill-rule="nonzero"/><path fill="#f364a2" d="M 179.613281 34.320312 C 179.71875 34.238281 179.847656 34.179688 179.988281 34.160156 C 218.640625 29.410156 248.550781 29.164062 268.894531 33.4375 C 287.066406 37.253906 297.621094 44.636719 300.269531 55.386719 C 302.144531 63 299.976562 72.085938 293.828125 82.382812 C 288.363281 91.539062 279.632812 101.675781 268.582031 111.699219 C 247.359375 130.945312 219.046875 148.605469 194.695312 157.785156 C 187.878906 160.355469 181.222656 162.742188 174.789062 165.054688 C 148.808594 174.386719 126.378906 182.445312 111.789062 195.65625 C 96.046875 209.914062 90.808594 229.464844 95.308594 257.195312 C 95.375 257.605469 95.101562 257.992188 94.6875 258.058594 C 94.28125 258.125 93.894531 257.847656 93.828125 257.441406 C 91.414062 242.566406 91.746094 230.1875 94.84375 219.605469 C 97.699219 209.867188 102.910156 201.667969 110.777344 194.542969 C 111.859375 193.566406 112.976562 192.617188 114.136719 191.695312 C 128.894531 179.945312 150.054688 172.34375 174.285156 163.640625 C 180.710938 161.332031 187.359375 158.945312 194.167969 156.378906 C 218.355469 147.261719 246.480469 129.71875 267.574219 110.585938 C 278.515625 100.664062 287.148438 90.644531 292.539062 81.613281 C 298.476562 71.667969 300.589844 62.964844 298.808594 55.746094 C 295.03125 40.386719 271.375 24.433594 180.175781 35.652344 C 179.761719 35.703125 179.386719 35.410156 179.335938 35 C 179.304688 34.730469 179.417969 34.476562 179.613281 34.320312 " fill-opacity="1" fill-rule="nonzero"/><path fill="#f364a2" d="M 179.613281 34.320312 C 179.738281 34.21875 179.894531 34.160156 180.066406 34.15625 C 214.925781 33.433594 242.136719 36.410156 260.9375 43.007812 C 277.777344 48.917969 287.984375 57.738281 291.273438 69.226562 C 296.300781 86.789062 284.117188 106.445312 273.007812 119.839844 C 259.460938 136.179688 239.691406 152.691406 218.765625 165.148438 C 201.355469 175.511719 182.574219 181.410156 164.414062 187.117188 C 145.402344 193.089844 127.445312 198.734375 114.738281 208.804688 C 114.703125 208.832031 114.667969 208.859375 114.636719 208.886719 C 100.648438 220.019531 94.511719 235.40625 95.320312 257.289062 C 95.335938 257.703125 95.011719 258.054688 94.597656 258.066406 C 94.183594 258.082031 93.835938 257.761719 93.816406 257.34375 C 92.914062 232.867188 100.769531 217.992188 113.660156 207.726562 C 126.601562 197.421875 144.621094 191.761719 163.960938 185.683594 C 182.042969 180.003906 200.738281 174.132812 217.996094 163.855469 C 258.921875 139.496094 298.003906 98.195312 289.828125 69.640625 C 286.679688 58.648438 276.796875 50.164062 260.441406 44.425781 C 241.808594 37.886719 214.777344 34.933594 180.097656 35.65625 C 179.683594 35.667969 179.339844 35.335938 179.332031 34.921875 C 179.328125 34.679688 179.4375 34.460938 179.613281 34.320312 " fill-opacity="1" fill-rule="nonzero"/><path fill="#f364a2" d="M 179.613281 34.320312 C 179.765625 34.195312 179.96875 34.132812 180.179688 34.160156 C 212.191406 38.371094 237.421875 45.308594 255.175781 54.785156 C 271.300781 63.394531 281.457031 74.183594 285.367188 86.855469 C 289.308594 99.617188 286.945312 114.121094 278.335938 129.960938 C 270.886719 143.671875 258.609375 158.375 242.832031 172.480469 C 223.722656 189.566406 197.082031 194.757812 171.316406 199.78125 C 152.246094 203.496094 134.230469 207.007812 120.355469 215.089844 C 104.839844 224.121094 96.886719 237.558594 95.316406 257.378906 C 95.285156 257.789062 94.921875 258.101562 94.511719 258.066406 C 94.09375 258.03125 93.789062 257.671875 93.820312 257.257812 C 95.28125 238.796875 102.273438 226.78125 112.652344 218.515625 C 127.34375 206.820312 148.828125 202.636719 171.03125 198.308594 C 196.59375 193.324219 223.023438 188.171875 241.832031 171.359375 C 257.480469 157.371094 269.648438 142.808594 277.015625 129.246094 C 285.421875 113.773438 287.75 99.660156 283.933594 87.296875 C 280.144531 75.015625 270.230469 64.527344 254.46875 56.109375 C 236.875 46.714844 211.8125 39.832031 179.984375 35.652344 C 179.570312 35.597656 179.285156 35.21875 179.335938 34.808594 C 179.363281 34.609375 179.464844 34.4375 179.613281 34.320312 " fill-opacity="1" fill-rule="nonzero"/><path fill="#f364a2" d="M 117.902344 172.054688 L 112.339844 177.089844 L 109.710938 170.304688 L 115.277344 165.265625 Z M 117.914062 162.878906 L 116.105469 158.214844 L 114.699219 159.488281 L 112.003906 152.53125 L 110.5625 153.09375 L 113.46875 160.601562 L 107.90625 165.636719 L 104.605469 157.109375 L 103.160156 157.667969 L 106.675781 166.746094 L 105.269531 168.019531 L 107.074219 172.6875 L 108.484375 171.414062 L 111.113281 178.203125 L 109.703125 179.476562 L 111.511719 184.140625 L 112.917969 182.867188 L 116.152344 191.222656 L 117.597656 190.664062 L 114.148438 181.753906 L 119.710938 176.722656 L 123.554688 186.648438 L 124.996094 186.089844 L 120.9375 175.609375 L 122.347656 174.335938 L 120.542969 169.667969 L 119.132812 170.945312 L 116.503906 164.15625 L 117.914062 162.878906 " fill-opacity="1" fill-rule="nonzero"/><path fill="#f364a2" d="M 272.433594 72.453125 L 255.5 60.96875 L 257.15625 58.527344 L 274.085938 70.011719 Z M 308.488281 46.988281 C 309.207031 44.117188 306.242188 40.902344 301.867188 39.808594 C 297.984375 38.835938 294.300781 39.859375 293.015625 42.109375 L 293.015625 42.105469 L 277.46875 65.027344 L 260.539062 53.542969 L 271.1875 37.835938 C 271.84375 40.074219 274.371094 42.1875 277.746094 43.03125 C 282.121094 44.128906 286.25 42.6875 286.96875 39.816406 C 287.6875 36.949219 284.726562 33.734375 280.351562 32.640625 C 276.46875 31.664062 272.785156 32.691406 271.5 34.9375 L 271.496094 34.933594 L 259.398438 52.773438 L 256.019531 57.757812 L 254.363281 60.199219 L 241.144531 51.234375 L 260.285156 23.015625 C 260.933594 25.253906 263.464844 27.363281 266.839844 28.207031 C 271.214844 29.304688 275.347656 27.867188 276.066406 25 C 276.78125 22.128906 273.820312 18.914062 269.445312 17.816406 C 265.5625 16.84375 261.878906 17.871094 260.59375 20.113281 L 260.589844 20.113281 L 240.007812 50.464844 L 239.996094 50.457031 L 236.613281 55.441406 L 236.628906 55.449219 L 237.765625 56.21875 L 269.050781 77.441406 L 270.1875 78.214844 L 273.570312 73.226562 L 275.226562 70.785156 L 278.609375 65.796875 L 292.710938 45.007812 C 293.359375 47.246094 295.886719 49.355469 299.265625 50.199219 C 303.636719 51.292969 307.769531 49.859375 308.488281 46.988281 " fill-opacity="1" fill-rule="nonzero"/><path fill="#f364a2" d="M 211.554688 146.285156 C 209.929688 143.398438 205.046875 143.0625 200.644531 145.539062 C 196.738281 147.738281 194.527344 151.402344 195.214844 154.222656 L 195.210938 154.222656 L 202.703125 200.121094 L 181.777344 203.535156 L 181.246094 200.273438 L 192.648438 198.410156 L 191.5625 191.75 L 180.15625 193.613281 L 176.207031 169.421875 C 178.460938 170.742188 182.140625 170.511719 185.539062 168.601562 C 189.941406 166.121094 192.195312 161.773438 190.570312 158.886719 C 188.945312 156 184.058594 155.664062 179.65625 158.140625 C 175.75 160.335938 173.542969 164.003906 174.230469 166.824219 L 174.222656 166.824219 L 178.636719 193.859375 L 179.722656 200.519531 L 180.257812 203.78125 L 180.351562 204.363281 L 181.34375 210.441406 L 203.789062 206.777344 L 205.308594 206.527344 L 204.21875 199.871094 L 197.195312 156.820312 C 199.445312 158.140625 203.128906 157.910156 206.527344 156 C 210.929688 153.519531 213.179688 149.171875 211.554688 146.285156 " fill-opacity="1" fill-rule="nonzero"/><path fill="#f364a2" d="M 162.652344 152.96875 C 159.867188 155.386719 156.574219 156.496094 153.992188 156.152344 L 152.589844 152.476562 C 152.859375 150.027344 154.382812 147.261719 156.921875 145.054688 C 159.941406 142.433594 163.554688 141.34375 166.21875 141.984375 C 166.238281 141.988281 166.3125 142.046875 166.3125 142.046875 C 168.066406 144.878906 166.542969 149.589844 162.652344 152.96875 Z M 167.324219 142.46875 C 166.878906 141.957031 166.328125 141.5625 165.703125 141.292969 C 163.003906 140.113281 158.875 141.132812 155.496094 144.066406 C 151.949219 147.144531 150.378906 151.328125 151.457031 154.191406 L 151.449219 154.199219 L 170.042969 202.945312 L 171.609375 202.34375 L 154.261719 156.867188 C 156.957031 157.800781 160.855469 156.753906 164.078125 153.957031 C 168.242188 150.339844 169.691406 145.199219 167.324219 142.46875 " fill-opacity="1" fill-rule="nonzero"/><path fill="#f364a2" d="M 223.941406 175.511719 C 224.410156 176 224.976562 176.363281 225.617188 176.605469 C 228.375 177.644531 232.445312 176.410156 235.667969 173.300781 C 239.050781 170.042969 240.398438 165.78125 239.175781 162.980469 L 239.183594 162.972656 L 218.082031 115.261719 L 216.546875 115.9375 L 236.230469 160.457031 C 233.492188 159.664062 229.660156 160.910156 226.582031 163.875 C 222.613281 167.699219 221.433594 172.910156 223.941406 175.511719 " fill-opacity="1" fill-rule="nonzero"/><path fill="#f364a2" d="M 235.308594 139.78125 C 237.398438 142.070312 241.929688 141.335938 245.417969 138.140625 C 248.511719 135.308594 249.742188 131.496094 248.519531 129.070312 L 248.527344 129.070312 L 233.808594 93.34375 L 251.757812 79.917969 L 265.3125 112.816406 C 262.976562 112.089844 259.667969 113.082031 256.976562 115.546875 C 253.488281 118.742188 252.355469 123.1875 254.453125 125.476562 C 256.542969 127.765625 261.074219 127.03125 264.5625 123.835938 C 267.65625 121.003906 268.890625 117.1875 267.667969 114.761719 L 267.671875 114.761719 L 253.023438 79.203125 L 250.617188 73.363281 L 249.351562 74.078125 L 230.136719 88.21875 L 232.542969 94.058594 L 246.164062 127.121094 C 243.832031 126.398438 240.523438 127.390625 237.828125 129.855469 C 234.339844 133.046875 233.210938 137.492188 235.308594 139.78125 " fill-opacity="1" fill-rule="nonzero"/><path fill="#f364a2" d="M 124.160156 138.46875 L 122.597656 139.132812 L 142.804688 186.605469 C 140.050781 185.789062 136.175781 187 133.042969 189.933594 C 128.980469 193.734375 127.710938 198.980469 130.203125 201.644531 C 132.699219 204.308594 138.011719 203.386719 142.078125 199.585938 C 145.710938 196.179688 147.101562 191.632812 145.570312 188.800781 L 145.578125 188.796875 L 130.03125 152.265625 C 130.035156 152.261719 146.691406 144.601562 154.972656 174.25 C 149.136719 142.847656 131.351562 151.804688 124.160156 138.46875 " fill-opacity="1" fill-rule="nonzero"/><g clip-path="url(#d61411943a)"><path fill="#f364a2" d="M 96.738281 231.328125 C 95.539062 231.925781 94.234375 232.5 92.796875 233.007812 L 92.21875 229.476562 L 86.472656 193.554688 C 87.738281 193.554688 89.050781 193.652344 90.414062 193.875 C 107.398438 196.65625 111.976562 223.710938 96.738281 231.328125 Z M 70.527344 233.808594 C 65.527344 232.742188 59.757812 229.769531 54.40625 224.421875 C 46.890625 216.902344 40.4375 201.785156 55.773438 179.535156 C 61.265625 171.570312 69.363281 165.230469 77.382812 158.628906 L 80.792969 179.070312 C 57.523438 184.050781 56.019531 219.082031 76.871094 223.609375 C 63.539062 212.65625 69.097656 196.039062 83.25 193.804688 L 89.355469 230.375 L 89.933594 233.878906 C 84.964844 235.148438 78.664062 235.539062 70.527344 233.808594 Z M 96.042969 96.332031 C 106.101562 99.671875 94.207031 130.238281 77.632812 138.273438 C 74.824219 139.636719 75.472656 89.496094 96.042969 96.332031 Z M 97.496094 180.210938 C 92.496094 178.714844 88.023438 178.253906 84.082031 178.585938 L 80.476562 156.050781 C 95.253906 143.585938 108.550781 129.339844 103.105469 101.097656 C 100.308594 86.585938 95.539062 63.8125 78.792969 90.671875 C 68.851562 106.621094 72.765625 122.6875 74.472656 141.179688 C 42.269531 163.386719 18.878906 205.570312 57.878906 231.832031 C 71.421875 240.953125 89.113281 237.410156 90.742188 238.78125 L 93.96875 258.316406 C 94.359375 260.75 94.621094 263.140625 94.621094 265.421875 C 94.597656 270.683594 93.300781 275.226562 89.070312 278.9375 C 83.984375 283.367188 78.578125 284.289062 74.71875 284.296875 C 73.378906 284.296875 72.253906 284.1875 71.394531 284.0625 L 71.398438 284.050781 C 68.589844 283.367188 65.972656 281.929688 63.839844 279.65625 C 82.464844 277.359375 78.070312 251.800781 60.875 256.378906 C 47.777344 259.863281 50.285156 278.933594 61.816406 284.085938 C 63.820312 284.980469 66.113281 285.78125 68.578125 286.304688 C 68.773438 286.492188 69.023438 286.625 69.308594 286.675781 C 69.925781 286.785156 71.980469 287.222656 74.71875 287.222656 C 74.734375 287.222656 74.746094 287.222656 74.761719 287.222656 C 79.074219 287.222656 85.277344 286.125 90.992188 281.140625 C 95.988281 276.808594 97.566406 271.148438 97.542969 265.421875 C 97.542969 263.148438 97.308594 260.84375 96.960938 258.542969 L 96.964844 258.542969 L 96.949219 258.480469 L 96.691406 256.898438 C 96.691406 256.898438 96.691406 256.898438 96.691406 256.894531 L 93.65625 238.28125 C 93.65625 238.253906 93.65625 238.21875 93.65625 238.191406 C 93.65625 238.128906 93.644531 238.070312 93.636719 238.011719 C 95.148438 234.898438 108.738281 233.523438 113.296875 213.691406 C 116.199219 201.054688 111.039062 184.265625 97.496094 180.210938 " fill-opacity="1" fill-rule="nonzero"/></g><g fill="#f364a2" fill-opacity="1"><g transform="translate(35.157501, 332.952283)"><g><path d="M 3.859375 0 C 3.460938 0 3.148438 -0.113281 2.921875 -0.34375 C 2.703125 -0.570312 2.59375 -0.882812 2.59375 -1.28125 L 2.59375 -19.9375 C 2.59375 -20.351562 2.695312 -20.671875 2.90625 -20.890625 C 3.125 -21.109375 3.429688 -21.21875 3.828125 -21.21875 C 4.222656 -21.21875 4.523438 -21.109375 4.734375 -20.890625 C 4.941406 -20.671875 5.046875 -20.351562 5.046875 -19.9375 L 5.046875 -2.15625 L 14.859375 -2.15625 C 15.210938 -2.15625 15.488281 -2.054688 15.6875 -1.859375 C 15.882812 -1.671875 15.984375 -1.410156 15.984375 -1.078125 C 15.984375 -0.734375 15.882812 -0.46875 15.6875 -0.28125 C 15.488281 -0.09375 15.210938 0 14.859375 0 Z M 3.859375 0 "/></g></g></g><g fill="#f364a2" fill-opacity="1"><g transform="translate(51.3902, 332.952283)"><g><path d="M 8.8125 0.265625 C 7.28125 0.265625 5.960938 -0.0351562 4.859375 -0.640625 C 3.753906 -1.242188 2.894531 -2.101562 2.28125 -3.21875 C 1.675781 -4.34375 1.375 -5.679688 1.375 -7.234375 C 1.375 -8.742188 1.671875 -10.0625 2.265625 -11.1875 C 2.867188 -12.320312 3.691406 -13.207031 4.734375 -13.84375 C 5.785156 -14.476562 7 -14.796875 8.375 -14.796875 C 9.34375 -14.796875 10.21875 -14.628906 11 -14.296875 C 11.78125 -13.972656 12.441406 -13.5 12.984375 -12.875 C 13.535156 -12.257812 13.953125 -11.515625 14.234375 -10.640625 C 14.523438 -9.765625 14.671875 -8.78125 14.671875 -7.6875 C 14.671875 -7.363281 14.582031 -7.125 14.40625 -6.96875 C 14.226562 -6.820312 13.96875 -6.75 13.625 -6.75 L 3.234375 -6.75 L 3.234375 -8.34375 L 13.0625 -8.34375 L 12.578125 -7.953125 C 12.578125 -9.023438 12.414062 -9.9375 12.09375 -10.6875 C 11.78125 -11.4375 11.316406 -12.007812 10.703125 -12.40625 C 10.097656 -12.800781 9.335938 -13 8.421875 -13 C 7.410156 -13 6.550781 -12.765625 5.84375 -12.296875 C 5.132812 -11.828125 4.597656 -11.175781 4.234375 -10.34375 C 3.878906 -9.519531 3.703125 -8.5625 3.703125 -7.46875 L 3.703125 -7.296875 C 3.703125 -5.460938 4.144531 -4.066406 5.03125 -3.109375 C 5.914062 -2.148438 7.175781 -1.671875 8.8125 -1.671875 C 9.488281 -1.671875 10.160156 -1.757812 10.828125 -1.9375 C 11.503906 -2.125 12.160156 -2.425781 12.796875 -2.84375 C 13.078125 -3.019531 13.332031 -3.101562 13.5625 -3.09375 C 13.789062 -3.082031 13.972656 -3.007812 14.109375 -2.875 C 14.242188 -2.75 14.335938 -2.59375 14.390625 -2.40625 C 14.441406 -2.21875 14.421875 -2.015625 14.328125 -1.796875 C 14.242188 -1.578125 14.070312 -1.382812 13.8125 -1.21875 C 13.15625 -0.75 12.378906 -0.382812 11.484375 -0.125 C 10.585938 0.132812 9.695312 0.265625 8.8125 0.265625 Z M 8.8125 0.265625 "/></g></g></g><g fill="#f364a2" fill-opacity="1"><g transform="translate(67.294053, 332.952283)"><g><path d="M 6.84375 0.265625 C 5.84375 0.265625 4.945312 0.0703125 4.15625 -0.3125 C 3.375 -0.695312 2.753906 -1.226562 2.296875 -1.90625 C 1.835938 -2.582031 1.609375 -3.34375 1.609375 -4.1875 C 1.609375 -5.257812 1.882812 -6.101562 2.4375 -6.71875 C 2.988281 -7.34375 3.894531 -7.78125 5.15625 -8.03125 C 6.414062 -8.289062 8.144531 -8.421875 10.34375 -8.421875 L 11.6875 -8.421875 L 11.6875 -6.84375 L 10.375 -6.84375 C 8.757812 -6.84375 7.488281 -6.765625 6.5625 -6.609375 C 5.632812 -6.460938 4.984375 -6.210938 4.609375 -5.859375 C 4.242188 -5.503906 4.0625 -4.992188 4.0625 -4.328125 C 4.0625 -3.515625 4.34375 -2.847656 4.90625 -2.328125 C 5.476562 -1.804688 6.253906 -1.546875 7.234375 -1.546875 C 8.023438 -1.546875 8.722656 -1.734375 9.328125 -2.109375 C 9.941406 -2.492188 10.421875 -3.015625 10.765625 -3.671875 C 11.117188 -4.328125 11.296875 -5.085938 11.296875 -5.953125 L 11.296875 -9.359375 C 11.296875 -10.585938 11.046875 -11.476562 10.546875 -12.03125 C 10.046875 -12.582031 9.226562 -12.859375 8.09375 -12.859375 C 7.394531 -12.859375 6.695312 -12.765625 6 -12.578125 C 5.3125 -12.398438 4.578125 -12.113281 3.796875 -11.71875 C 3.515625 -11.582031 3.273438 -11.535156 3.078125 -11.578125 C 2.878906 -11.628906 2.71875 -11.734375 2.59375 -11.890625 C 2.476562 -12.054688 2.410156 -12.242188 2.390625 -12.453125 C 2.367188 -12.660156 2.410156 -12.863281 2.515625 -13.0625 C 2.628906 -13.257812 2.804688 -13.421875 3.046875 -13.546875 C 3.921875 -13.984375 4.785156 -14.300781 5.640625 -14.5 C 6.503906 -14.695312 7.320312 -14.796875 8.09375 -14.796875 C 9.351562 -14.796875 10.390625 -14.585938 11.203125 -14.171875 C 12.023438 -13.765625 12.632812 -13.148438 13.03125 -12.328125 C 13.425781 -11.503906 13.625 -10.441406 13.625 -9.140625 L 13.625 -1.046875 C 13.625 -0.648438 13.53125 -0.34375 13.34375 -0.125 C 13.15625 0.09375 12.882812 0.203125 12.53125 0.203125 C 12.144531 0.203125 11.851562 0.09375 11.65625 -0.125 C 11.457031 -0.34375 11.359375 -0.648438 11.359375 -1.046875 L 11.359375 -3.375 L 11.625 -3.375 C 11.46875 -2.613281 11.164062 -1.960938 10.71875 -1.421875 C 10.269531 -0.890625 9.71875 -0.472656 9.0625 -0.171875 C 8.40625 0.117188 7.664062 0.265625 6.84375 0.265625 Z M 6.84375 0.265625 "/></g></g></g><g fill="#f364a2" fill-opacity="1"><g transform="translate(83.138122, 332.952283)"><g><path d="M 3.5 0.203125 C 3.101562 0.203125 2.796875 0.09375 2.578125 -0.125 C 2.367188 -0.34375 2.265625 -0.648438 2.265625 -1.046875 L 2.265625 -13.515625 C 2.265625 -13.910156 2.363281 -14.210938 2.5625 -14.421875 C 2.769531 -14.628906 3.0625 -14.734375 3.4375 -14.734375 C 3.8125 -14.734375 4.101562 -14.628906 4.3125 -14.421875 C 4.53125 -14.210938 4.640625 -13.910156 4.640625 -13.515625 L 4.640625 -11.09375 L 4.328125 -11.09375 C 4.648438 -12.269531 5.257812 -13.175781 6.15625 -13.8125 C 7.050781 -14.445312 8.15625 -14.785156 9.46875 -14.828125 C 9.769531 -14.847656 10.007812 -14.78125 10.1875 -14.625 C 10.375 -14.476562 10.472656 -14.226562 10.484375 -13.875 C 10.503906 -13.53125 10.425781 -13.257812 10.25 -13.0625 C 10.070312 -12.863281 9.796875 -12.742188 9.421875 -12.703125 L 8.9375 -12.640625 C 7.582031 -12.523438 6.539062 -12.09375 5.8125 -11.34375 C 5.082031 -10.59375 4.71875 -9.570312 4.71875 -8.28125 L 4.71875 -1.046875 C 4.71875 -0.648438 4.613281 -0.34375 4.40625 -0.125 C 4.195312 0.09375 3.894531 0.203125 3.5 0.203125 Z M 3.5 0.203125 "/></g></g></g><g fill="#f364a2" fill-opacity="1"><g transform="translate(93.840339, 332.952283)"><g><path d="M 3.46875 0.203125 C 3.070312 0.203125 2.769531 0.09375 2.5625 -0.125 C 2.363281 -0.34375 2.265625 -0.648438 2.265625 -1.046875 L 2.265625 -13.515625 C 2.265625 -13.910156 2.363281 -14.210938 2.5625 -14.421875 C 2.769531 -14.628906 3.0625 -14.734375 3.4375 -14.734375 C 3.8125 -14.734375 4.101562 -14.628906 4.3125 -14.421875 C 4.53125 -14.210938 4.640625 -13.910156 4.640625 -13.515625 L 4.640625 -10.9375 L 4.296875 -11.296875 C 4.722656 -12.453125 5.40625 -13.320312 6.34375 -13.90625 C 7.289062 -14.5 8.382812 -14.796875 9.625 -14.796875 C 10.78125 -14.796875 11.738281 -14.585938 12.5 -14.171875 C 13.269531 -13.753906 13.84375 -13.117188 14.21875 -12.265625 C 14.601562 -11.421875 14.796875 -10.351562 14.796875 -9.0625 L 14.796875 -1.046875 C 14.796875 -0.648438 14.691406 -0.34375 14.484375 -0.125 C 14.273438 0.09375 13.976562 0.203125 13.59375 0.203125 C 13.195312 0.203125 12.894531 0.09375 12.6875 -0.125 C 12.476562 -0.34375 12.375 -0.648438 12.375 -1.046875 L 12.375 -8.90625 C 12.375 -10.257812 12.109375 -11.25 11.578125 -11.875 C 11.054688 -12.507812 10.21875 -12.828125 9.0625 -12.828125 C 7.71875 -12.828125 6.648438 -12.410156 5.859375 -11.578125 C 5.078125 -10.753906 4.6875 -9.65625 4.6875 -8.28125 L 4.6875 -1.046875 C 4.6875 -0.210938 4.28125 0.203125 3.46875 0.203125 Z M 3.46875 0.203125 "/></g></g></g><g fill="#f364a2" fill-opacity="1"><g transform="translate(110.820395, 332.952283)"><g/></g></g><g fill="#f364a2" fill-opacity="1"><g transform="translate(118.533163, 332.952283)"><g><path d="M 3.796875 0.203125 C 3.441406 0.203125 3.160156 0.0976562 2.953125 -0.109375 C 2.753906 -0.316406 2.65625 -0.609375 2.65625 -0.984375 L 2.65625 -20.09375 C 2.65625 -20.488281 2.753906 -20.785156 2.953125 -20.984375 C 3.160156 -21.179688 3.441406 -21.28125 3.796875 -21.28125 C 4.117188 -21.28125 4.375 -21.210938 4.5625 -21.078125 C 4.75 -20.953125 4.921875 -20.738281 5.078125 -20.4375 L 13.265625 -5.015625 L 12.375 -5.015625 L 20.53125 -20.4375 C 20.695312 -20.738281 20.867188 -20.953125 21.046875 -21.078125 C 21.222656 -21.210938 21.476562 -21.28125 21.8125 -21.28125 C 22.15625 -21.28125 22.425781 -21.179688 22.625 -20.984375 C 22.820312 -20.785156 22.921875 -20.488281 22.921875 -20.09375 L 22.921875 -0.984375 C 22.921875 -0.609375 22.828125 -0.316406 22.640625 -0.109375 C 22.453125 0.0976562 22.171875 0.203125 21.796875 0.203125 C 21.429688 0.203125 21.148438 0.0976562 20.953125 -0.109375 C 20.753906 -0.316406 20.65625 -0.609375 20.65625 -0.984375 L 20.65625 -17.78125 L 21.375 -17.78125 L 13.90625 -3.765625 C 13.757812 -3.503906 13.609375 -3.316406 13.453125 -3.203125 C 13.304688 -3.097656 13.097656 -3.046875 12.828125 -3.046875 C 12.546875 -3.046875 12.320312 -3.101562 12.15625 -3.21875 C 12 -3.34375 11.863281 -3.523438 11.75 -3.765625 L 4.1875 -17.8125 L 4.90625 -17.8125 L 4.90625 -0.984375 C 4.90625 -0.609375 4.804688 -0.316406 4.609375 -0.109375 C 4.421875 0.0976562 4.148438 0.203125 3.796875 0.203125 Z M 3.796875 0.203125 "/></g></g></g><g fill="#f364a2" fill-opacity="1"><g transform="translate(144.092934, 332.952283)"><g><path d="M 7.40625 0.265625 C 6.238281 0.265625 5.269531 0.0507812 4.5 -0.375 C 3.726562 -0.800781 3.148438 -1.441406 2.765625 -2.296875 C 2.378906 -3.160156 2.1875 -4.226562 2.1875 -5.5 L 2.1875 -13.515625 C 2.1875 -13.929688 2.289062 -14.238281 2.5 -14.4375 C 2.707031 -14.632812 3 -14.734375 3.375 -14.734375 C 3.769531 -14.734375 4.070312 -14.632812 4.28125 -14.4375 C 4.5 -14.238281 4.609375 -13.929688 4.609375 -13.515625 L 4.609375 -5.53125 C 4.609375 -4.25 4.867188 -3.296875 5.390625 -2.671875 C 5.921875 -2.046875 6.753906 -1.734375 7.890625 -1.734375 C 9.128906 -1.734375 10.132812 -2.148438 10.90625 -2.984375 C 11.6875 -3.828125 12.078125 -4.925781 12.078125 -6.28125 L 12.078125 -13.515625 C 12.078125 -13.929688 12.179688 -14.238281 12.390625 -14.4375 C 12.597656 -14.632812 12.898438 -14.734375 13.296875 -14.734375 C 13.679688 -14.734375 13.976562 -14.632812 14.1875 -14.4375 C 14.394531 -14.238281 14.5 -13.929688 14.5 -13.515625 L 14.5 -1.046875 C 14.5 -0.210938 14.109375 0.203125 13.328125 0.203125 C 12.953125 0.203125 12.660156 0.09375 12.453125 -0.125 C 12.242188 -0.34375 12.140625 -0.648438 12.140625 -1.046875 L 12.140625 -3.765625 L 12.53125 -3.34375 C 12.125 -2.164062 11.46875 -1.269531 10.5625 -0.65625 C 9.65625 -0.0390625 8.601562 0.265625 7.40625 0.265625 Z M 7.40625 0.265625 "/></g></g></g><g fill="#f364a2" fill-opacity="1"><g transform="translate(160.863734, 332.952283)"><g><path d="M 7.171875 0.265625 C 6.273438 0.265625 5.375 0.15625 4.46875 -0.0625 C 3.5625 -0.28125 2.71875 -0.660156 1.9375 -1.203125 C 1.738281 -1.335938 1.597656 -1.5 1.515625 -1.6875 C 1.441406 -1.875 1.421875 -2.0625 1.453125 -2.25 C 1.484375 -2.445312 1.5625 -2.613281 1.6875 -2.75 C 1.820312 -2.882812 1.984375 -2.96875 2.171875 -3 C 2.359375 -3.03125 2.570312 -2.988281 2.8125 -2.875 C 3.582031 -2.394531 4.332031 -2.054688 5.0625 -1.859375 C 5.789062 -1.671875 6.515625 -1.578125 7.234375 -1.578125 C 8.367188 -1.578125 9.222656 -1.785156 9.796875 -2.203125 C 10.378906 -2.628906 10.671875 -3.203125 10.671875 -3.921875 C 10.671875 -4.472656 10.476562 -4.910156 10.09375 -5.234375 C 9.71875 -5.566406 9.125 -5.828125 8.3125 -6.015625 L 5.59375 -6.609375 C 4.332031 -6.867188 3.398438 -7.316406 2.796875 -7.953125 C 2.191406 -8.585938 1.890625 -9.414062 1.890625 -10.4375 C 1.890625 -11.332031 2.117188 -12.101562 2.578125 -12.75 C 3.046875 -13.394531 3.707031 -13.894531 4.5625 -14.25 C 5.425781 -14.613281 6.425781 -14.796875 7.5625 -14.796875 C 8.4375 -14.796875 9.265625 -14.679688 10.046875 -14.453125 C 10.835938 -14.222656 11.554688 -13.859375 12.203125 -13.359375 C 12.398438 -13.222656 12.53125 -13.054688 12.59375 -12.859375 C 12.664062 -12.671875 12.675781 -12.484375 12.625 -12.296875 C 12.570312 -12.109375 12.476562 -11.945312 12.34375 -11.8125 C 12.207031 -11.6875 12.035156 -11.613281 11.828125 -11.59375 C 11.628906 -11.570312 11.421875 -11.632812 11.203125 -11.78125 C 10.609375 -12.175781 10 -12.46875 9.375 -12.65625 C 8.757812 -12.84375 8.15625 -12.9375 7.5625 -12.9375 C 6.445312 -12.9375 5.597656 -12.71875 5.015625 -12.28125 C 4.441406 -11.84375 4.15625 -11.265625 4.15625 -10.546875 C 4.15625 -9.992188 4.332031 -9.535156 4.6875 -9.171875 C 5.050781 -8.816406 5.609375 -8.5625 6.359375 -8.40625 L 9.09375 -7.828125 C 10.382812 -7.546875 11.351562 -7.101562 12 -6.5 C 12.644531 -5.894531 12.96875 -5.070312 12.96875 -4.03125 C 12.96875 -2.71875 12.4375 -1.671875 11.375 -0.890625 C 10.320312 -0.117188 8.921875 0.265625 7.171875 0.265625 Z M 7.171875 0.265625 "/></g></g></g><g fill="#f364a2" fill-opacity="1"><g transform="translate(175.242972, 332.952283)"><g><path d="M 3.46875 0.15625 C 3.070312 0.15625 2.769531 0.0390625 2.5625 -0.1875 C 2.363281 -0.414062 2.265625 -0.742188 2.265625 -1.171875 L 2.265625 -13.390625 C 2.265625 -13.804688 2.363281 -14.125 2.5625 -14.34375 C 2.769531 -14.5625 3.070312 -14.671875 3.46875 -14.671875 C 3.84375 -14.671875 4.140625 -14.5625 4.359375 -14.34375 C 4.578125 -14.125 4.6875 -13.804688 4.6875 -13.390625 L 4.6875 -1.171875 C 4.6875 -0.742188 4.582031 -0.414062 4.375 -0.1875 C 4.164062 0.0390625 3.863281 0.15625 3.46875 0.15625 Z M 3.46875 -18.03125 C 2.96875 -18.03125 2.578125 -18.160156 2.296875 -18.421875 C 2.023438 -18.691406 1.890625 -19.054688 1.890625 -19.515625 C 1.890625 -19.992188 2.023438 -20.359375 2.296875 -20.609375 C 2.578125 -20.859375 2.96875 -20.984375 3.46875 -20.984375 C 3.988281 -20.984375 4.378906 -20.859375 4.640625 -20.609375 C 4.910156 -20.359375 5.046875 -19.992188 5.046875 -19.515625 C 5.046875 -19.054688 4.910156 -18.691406 4.640625 -18.421875 C 4.378906 -18.160156 3.988281 -18.03125 3.46875 -18.03125 Z M 3.46875 -18.03125 "/></g></g></g><g fill="#f364a2" fill-opacity="1"><g transform="translate(182.178492, 332.952283)"><g><path d="M 8.421875 0.265625 C 6.972656 0.265625 5.71875 -0.0507812 4.65625 -0.6875 C 3.601562 -1.320312 2.789062 -2.210938 2.21875 -3.359375 C 1.65625 -4.503906 1.375 -5.835938 1.375 -7.359375 C 1.375 -8.515625 1.53125 -9.550781 1.84375 -10.46875 C 2.164062 -11.382812 2.632812 -12.164062 3.25 -12.8125 C 3.875 -13.457031 4.617188 -13.945312 5.484375 -14.28125 C 6.347656 -14.625 7.328125 -14.796875 8.421875 -14.796875 C 9.140625 -14.796875 9.890625 -14.6875 10.671875 -14.46875 C 11.453125 -14.25 12.160156 -13.867188 12.796875 -13.328125 C 12.992188 -13.191406 13.117188 -13.023438 13.171875 -12.828125 C 13.234375 -12.628906 13.234375 -12.429688 13.171875 -12.234375 C 13.117188 -12.046875 13.019531 -11.882812 12.875 -11.75 C 12.738281 -11.625 12.566406 -11.550781 12.359375 -11.53125 C 12.148438 -11.519531 11.9375 -11.59375 11.71875 -11.75 C 11.195312 -12.144531 10.664062 -12.421875 10.125 -12.578125 C 9.59375 -12.742188 9.078125 -12.828125 8.578125 -12.828125 C 7.796875 -12.828125 7.113281 -12.703125 6.53125 -12.453125 C 5.957031 -12.203125 5.472656 -11.847656 5.078125 -11.390625 C 4.679688 -10.929688 4.378906 -10.363281 4.171875 -9.6875 C 3.960938 -9.007812 3.859375 -8.222656 3.859375 -7.328125 C 3.859375 -5.585938 4.265625 -4.210938 5.078125 -3.203125 C 5.898438 -2.203125 7.066406 -1.703125 8.578125 -1.703125 C 9.078125 -1.703125 9.585938 -1.78125 10.109375 -1.9375 C 10.640625 -2.101562 11.175781 -2.382812 11.71875 -2.78125 C 11.9375 -2.9375 12.144531 -3.003906 12.34375 -2.984375 C 12.539062 -2.960938 12.707031 -2.890625 12.84375 -2.765625 C 12.988281 -2.640625 13.085938 -2.472656 13.140625 -2.265625 C 13.191406 -2.066406 13.1875 -1.875 13.125 -1.6875 C 13.0625 -1.5 12.929688 -1.335938 12.734375 -1.203125 C 12.097656 -0.679688 11.398438 -0.304688 10.640625 -0.078125 C 9.878906 0.148438 9.140625 0.265625 8.421875 0.265625 Z M 8.421875 0.265625 "/></g></g></g><g fill="#f364a2" fill-opacity="1"><g transform="translate(196.019627, 332.952283)"><g/></g></g><g fill="#f364a2" fill-opacity="1"><g transform="translate(203.732395, 332.952283)"><g><path d="M 7.296875 0.203125 C 6.953125 0.203125 6.648438 0.113281 6.390625 -0.0625 C 6.140625 -0.238281 5.929688 -0.523438 5.765625 -0.921875 L 1.3125 -13.03125 C 1.195312 -13.375 1.160156 -13.671875 1.203125 -13.921875 C 1.253906 -14.179688 1.378906 -14.378906 1.578125 -14.515625 C 1.785156 -14.660156 2.035156 -14.734375 2.328125 -14.734375 C 2.628906 -14.734375 2.875 -14.660156 3.0625 -14.515625 C 3.25 -14.378906 3.40625 -14.125 3.53125 -13.75 L 7.71875 -1.796875 L 7 -1.796875 L 11.296875 -13.75 C 11.441406 -14.101562 11.617188 -14.351562 11.828125 -14.5 C 12.035156 -14.65625 12.304688 -14.734375 12.640625 -14.734375 C 12.960938 -14.734375 13.234375 -14.648438 13.453125 -14.484375 C 13.671875 -14.328125 13.835938 -14.082031 13.953125 -13.75 L 18.171875 -1.796875 L 17.484375 -1.796875 L 21.734375 -13.8125 C 21.867188 -14.164062 22.035156 -14.40625 22.234375 -14.53125 C 22.429688 -14.664062 22.671875 -14.734375 22.953125 -14.734375 C 23.273438 -14.734375 23.519531 -14.648438 23.6875 -14.484375 C 23.851562 -14.328125 23.945312 -14.117188 23.96875 -13.859375 C 23.988281 -13.609375 23.941406 -13.332031 23.828125 -13.03125 L 19.375 -0.921875 C 19.226562 -0.546875 19.019531 -0.265625 18.75 -0.078125 C 18.488281 0.109375 18.1875 0.203125 17.84375 0.203125 C 17.507812 0.203125 17.210938 0.109375 16.953125 -0.078125 C 16.691406 -0.265625 16.488281 -0.546875 16.34375 -0.921875 L 11.921875 -13.0625 L 13.21875 -13.0625 L 8.8125 -0.921875 C 8.675781 -0.546875 8.476562 -0.265625 8.21875 -0.078125 C 7.957031 0.109375 7.648438 0.203125 7.296875 0.203125 Z M 7.296875 0.203125 "/></g></g></g><g fill="#f364a2" fill-opacity="1"><g transform="translate(228.873644, 332.952283)"><g><path d="M 3.46875 0.15625 C 3.070312 0.15625 2.769531 0.0390625 2.5625 -0.1875 C 2.363281 -0.414062 2.265625 -0.742188 2.265625 -1.171875 L 2.265625 -13.390625 C 2.265625 -13.804688 2.363281 -14.125 2.5625 -14.34375 C 2.769531 -14.5625 3.070312 -14.671875 3.46875 -14.671875 C 3.84375 -14.671875 4.140625 -14.5625 4.359375 -14.34375 C 4.578125 -14.125 4.6875 -13.804688 4.6875 -13.390625 L 4.6875 -1.171875 C 4.6875 -0.742188 4.582031 -0.414062 4.375 -0.1875 C 4.164062 0.0390625 3.863281 0.15625 3.46875 0.15625 Z M 3.46875 -18.03125 C 2.96875 -18.03125 2.578125 -18.160156 2.296875 -18.421875 C 2.023438 -18.691406 1.890625 -19.054688 1.890625 -19.515625 C 1.890625 -19.992188 2.023438 -20.359375 2.296875 -20.609375 C 2.578125 -20.859375 2.96875 -20.984375 3.46875 -20.984375 C 3.988281 -20.984375 4.378906 -20.859375 4.640625 -20.609375 C 4.910156 -20.359375 5.046875 -19.992188 5.046875 -19.515625 C 5.046875 -19.054688 4.910156 -18.691406 4.640625 -18.421875 C 4.378906 -18.160156 3.988281 -18.03125 3.46875 -18.03125 Z M 3.46875 -18.03125 "/></g></g></g><g fill="#f364a2" fill-opacity="1"><g transform="translate(235.809175, 332.952283)"><g><path d="M 8.09375 0.265625 C 6.957031 0.265625 6.003906 0.0625 5.234375 -0.34375 C 4.472656 -0.75 3.898438 -1.34375 3.515625 -2.125 C 3.140625 -2.914062 2.953125 -3.878906 2.953125 -5.015625 L 2.953125 -12.640625 L 0.953125 -12.640625 C 0.617188 -12.640625 0.359375 -12.722656 0.171875 -12.890625 C -0.00390625 -13.066406 -0.09375 -13.300781 -0.09375 -13.59375 C -0.09375 -13.894531 -0.00390625 -14.125 0.171875 -14.28125 C 0.359375 -14.445312 0.617188 -14.53125 0.953125 -14.53125 L 2.953125 -14.53125 L 2.953125 -17.96875 C 2.953125 -18.363281 3.0625 -18.664062 3.28125 -18.875 C 3.5 -19.082031 3.800781 -19.1875 4.1875 -19.1875 C 4.5625 -19.1875 4.851562 -19.082031 5.0625 -18.875 C 5.269531 -18.664062 5.375 -18.363281 5.375 -17.96875 L 5.375 -14.53125 L 9.140625 -14.53125 C 9.484375 -14.53125 9.742188 -14.445312 9.921875 -14.28125 C 10.097656 -14.125 10.1875 -13.894531 10.1875 -13.59375 C 10.1875 -13.300781 10.097656 -13.066406 9.921875 -12.890625 C 9.742188 -12.722656 9.484375 -12.640625 9.140625 -12.640625 L 5.375 -12.640625 L 5.375 -5.265625 C 5.375 -4.128906 5.613281 -3.265625 6.09375 -2.671875 C 6.570312 -2.085938 7.347656 -1.796875 8.421875 -1.796875 C 8.804688 -1.796875 9.128906 -1.832031 9.390625 -1.90625 C 9.660156 -1.988281 9.890625 -2.03125 10.078125 -2.03125 C 10.253906 -2.050781 10.398438 -1.988281 10.515625 -1.84375 C 10.640625 -1.707031 10.703125 -1.472656 10.703125 -1.140625 C 10.703125 -0.898438 10.65625 -0.675781 10.5625 -0.46875 C 10.476562 -0.269531 10.328125 -0.132812 10.109375 -0.0625 C 9.867188 0.0195312 9.550781 0.09375 9.15625 0.15625 C 8.769531 0.226562 8.414062 0.265625 8.09375 0.265625 Z M 8.09375 0.265625 "/></g></g></g><g fill="#f364a2" fill-opacity="1"><g transform="translate(246.272233, 332.952283)"><g><path d="M 3.46875 0.203125 C 3.070312 0.203125 2.769531 0.09375 2.5625 -0.125 C 2.363281 -0.34375 2.265625 -0.648438 2.265625 -1.046875 L 2.265625 -20.0625 C 2.265625 -20.457031 2.363281 -20.757812 2.5625 -20.96875 C 2.769531 -21.175781 3.070312 -21.28125 3.46875 -21.28125 C 3.84375 -21.28125 4.140625 -21.175781 4.359375 -20.96875 C 4.578125 -20.757812 4.6875 -20.457031 4.6875 -20.0625 L 4.6875 -11.296875 L 4.296875 -11.296875 C 4.722656 -12.453125 5.40625 -13.320312 6.34375 -13.90625 C 7.289062 -14.5 8.382812 -14.796875 9.625 -14.796875 C 10.78125 -14.796875 11.738281 -14.585938 12.5 -14.171875 C 13.269531 -13.753906 13.84375 -13.117188 14.21875 -12.265625 C 14.601562 -11.421875 14.796875 -10.351562 14.796875 -9.0625 L 14.796875 -1.046875 C 14.796875 -0.648438 14.691406 -0.34375 14.484375 -0.125 C 14.273438 0.09375 13.976562 0.203125 13.59375 0.203125 C 13.195312 0.203125 12.894531 0.09375 12.6875 -0.125 C 12.476562 -0.34375 12.375 -0.648438 12.375 -1.046875 L 12.375 -8.90625 C 12.375 -10.257812 12.109375 -11.25 11.578125 -11.875 C 11.054688 -12.507812 10.21875 -12.828125 9.0625 -12.828125 C 7.71875 -12.828125 6.648438 -12.410156 5.859375 -11.578125 C 5.078125 -10.753906 4.6875 -9.65625 4.6875 -8.28125 L 4.6875 -1.046875 C 4.6875 -0.210938 4.28125 0.203125 3.46875 0.203125 Z M 3.46875 0.203125 "/></g></g></g><g fill="#f364a2" fill-opacity="1"><g transform="translate(263.252289, 332.952283)"><g/></g></g><g fill="#f364a2" fill-opacity="1"><g transform="translate(270.965057, 332.952283)"><g><path d="M 7.40625 0.265625 C 6.238281 0.265625 5.269531 0.0507812 4.5 -0.375 C 3.726562 -0.800781 3.148438 -1.441406 2.765625 -2.296875 C 2.378906 -3.160156 2.1875 -4.226562 2.1875 -5.5 L 2.1875 -13.515625 C 2.1875 -13.929688 2.289062 -14.238281 2.5 -14.4375 C 2.707031 -14.632812 3 -14.734375 3.375 -14.734375 C 3.769531 -14.734375 4.070312 -14.632812 4.28125 -14.4375 C 4.5 -14.238281 4.609375 -13.929688 4.609375 -13.515625 L 4.609375 -5.53125 C 4.609375 -4.25 4.867188 -3.296875 5.390625 -2.671875 C 5.921875 -2.046875 6.753906 -1.734375 7.890625 -1.734375 C 9.128906 -1.734375 10.132812 -2.148438 10.90625 -2.984375 C 11.6875 -3.828125 12.078125 -4.925781 12.078125 -6.28125 L 12.078125 -13.515625 C 12.078125 -13.929688 12.179688 -14.238281 12.390625 -14.4375 C 12.597656 -14.632812 12.898438 -14.734375 13.296875 -14.734375 C 13.679688 -14.734375 13.976562 -14.632812 14.1875 -14.4375 C 14.394531 -14.238281 14.5 -13.929688 14.5 -13.515625 L 14.5 -1.046875 C 14.5 -0.210938 14.109375 0.203125 13.328125 0.203125 C 12.953125 0.203125 12.660156 0.09375 12.453125 -0.125 C 12.242188 -0.34375 12.140625 -0.648438 12.140625 -1.046875 L 12.140625 -3.765625 L 12.53125 -3.34375 C 12.125 -2.164062 11.46875 -1.269531 10.5625 -0.65625 C 9.65625 -0.0390625 8.601562 0.265625 7.40625 0.265625 Z M 7.40625 0.265625 "/></g></g></g><g fill="#f364a2" fill-opacity="1"><g transform="translate(287.735869, 332.952283)"><g><path d="M 7.171875 0.265625 C 6.273438 0.265625 5.375 0.15625 4.46875 -0.0625 C 3.5625 -0.28125 2.71875 -0.660156 1.9375 -1.203125 C 1.738281 -1.335938 1.597656 -1.5 1.515625 -1.6875 C 1.441406 -1.875 1.421875 -2.0625 1.453125 -2.25 C 1.484375 -2.445312 1.5625 -2.613281 1.6875 -2.75 C 1.820312 -2.882812 1.984375 -2.96875 2.171875 -3 C 2.359375 -3.03125 2.570312 -2.988281 2.8125 -2.875 C 3.582031 -2.394531 4.332031 -2.054688 5.0625 -1.859375 C 5.789062 -1.671875 6.515625 -1.578125 7.234375 -1.578125 C 8.367188 -1.578125 9.222656 -1.785156 9.796875 -2.203125 C 10.378906 -2.628906 10.671875 -3.203125 10.671875 -3.921875 C 10.671875 -4.472656 10.476562 -4.910156 10.09375 -5.234375 C 9.71875 -5.566406 9.125 -5.828125 8.3125 -6.015625 L 5.59375 -6.609375 C 4.332031 -6.867188 3.398438 -7.316406 2.796875 -7.953125 C 2.191406 -8.585938 1.890625 -9.414062 1.890625 -10.4375 C 1.890625 -11.332031 2.117188 -12.101562 2.578125 -12.75 C 3.046875 -13.394531 3.707031 -13.894531 4.5625 -14.25 C 5.425781 -14.613281 6.425781 -14.796875 7.5625 -14.796875 C 8.4375 -14.796875 9.265625 -14.679688 10.046875 -14.453125 C 10.835938 -14.222656 11.554688 -13.859375 12.203125 -13.359375 C 12.398438 -13.222656 12.53125 -13.054688 12.59375 -12.859375 C 12.664062 -12.671875 12.675781 -12.484375 12.625 -12.296875 C 12.570312 -12.109375 12.476562 -11.945312 12.34375 -11.8125 C 12.207031 -11.6875 12.035156 -11.613281 11.828125 -11.59375 C 11.628906 -11.570312 11.421875 -11.632812 11.203125 -11.78125 C 10.609375 -12.175781 10 -12.46875 9.375 -12.65625 C 8.757812 -12.84375 8.15625 -12.9375 7.5625 -12.9375 C 6.445312 -12.9375 5.597656 -12.71875 5.015625 -12.28125 C 4.441406 -11.84375 4.15625 -11.265625 4.15625 -10.546875 C 4.15625 -9.992188 4.332031 -9.535156 4.6875 -9.171875 C 5.050781 -8.816406 5.609375 -8.5625 6.359375 -8.40625 L 9.09375 -7.828125 C 10.382812 -7.546875 11.351562 -7.101562 12 -6.5 C 12.644531 -5.894531 12.96875 -5.070312 12.96875 -4.03125 C 12.96875 -2.71875 12.4375 -1.671875 11.375 -0.890625 C 10.320312 -0.117188 8.921875 0.265625 7.171875 0.265625 Z M 7.171875 0.265625 "/></g></g></g><g fill="#f364a2" fill-opacity="1"><g transform="translate(302.115094, 332.952283)"><g><path d="M 3.4375 -5.34375 C 3.195312 -5.34375 3 -5.421875 2.84375 -5.578125 C 2.695312 -5.742188 2.613281 -5.988281 2.59375 -6.3125 L 2 -19.703125 C 1.976562 -20.179688 2.09375 -20.5625 2.34375 -20.84375 C 2.59375 -21.132812 2.957031 -21.28125 3.4375 -21.28125 C 3.894531 -21.28125 4.242188 -21.132812 4.484375 -20.84375 C 4.722656 -20.5625 4.832031 -20.179688 4.8125 -19.703125 L 4.21875 -6.3125 C 4.21875 -5.988281 4.144531 -5.742188 4 -5.578125 C 3.863281 -5.421875 3.675781 -5.34375 3.4375 -5.34375 Z M 3.4375 0.125 C 2.9375 0.125 2.535156 -0.03125 2.234375 -0.34375 C 1.941406 -0.65625 1.796875 -1.050781 1.796875 -1.53125 C 1.796875 -2 1.941406 -2.390625 2.234375 -2.703125 C 2.535156 -3.015625 2.9375 -3.171875 3.4375 -3.171875 C 3.9375 -3.171875 4.328125 -3.015625 4.609375 -2.703125 C 4.898438 -2.390625 5.046875 -2 5.046875 -1.53125 C 5.046875 -1.050781 4.898438 -0.65625 4.609375 -0.34375 C 4.328125 -0.03125 3.9375 0.125 3.4375 0.125 Z M 3.4375 0.125 "/></g></g></g></svg>