<svg xmlns="http://www.w3.org/2000/svg" xmlns:xlink="http://www.w3.org/1999/xlink" version="1.1" x="0px" y="0px" viewBox="0 0 100 100" enable-background="new 0 0 100 100" xml:space="preserve"><g><rect x="-192" width="185" height="99"></rect><rect y="-36" width="100" height="30"></rect><text transform="matrix(1 0 0 1 66 -19.5)" fill="#000000" font-family="'Helvetica'" font-size="2.4">http://thenounproject.com</text><text transform="matrix(1 0 0 1 7.166 -24.5)"><tspan x="0" y="0" fill="#000000" font-family="'Helvetica-Bold'" font-size="6.1578">The Noun Project</tspan><tspan x="1.12" y="4.8" fill="#000000" font-family="'Helvetica-Bold'" font-size="4">Icon Template</tspan></text><text transform="matrix(1 0 0 1 -178.5 10.5)" fill="#000000" font-family="'Helvetica-Bold'" font-size="6.1578">Reminders</text><line fill="#000000" stroke="#FFFFFF" stroke-miterlimit="10" x1="8" y1="-14.5" x2="18" y2="-14.5"></line><line fill="#000000" stroke="#FFFFFF" stroke-miterlimit="10" x1="-179" y1="16.5" x2="-162" y2="16.5"></line><g><g><g><rect x="-170.802" y="31.318" fill="#000000" width="8.721" height="8.642"></rect><path fill="#000000" d="M-164.455,42.312h4.747v-4.703h-4.747V42.312z M-159.266,42.749h-5.63V37.17h5.63V42.749      L-159.266,42.749z M-166.221,44.062h8.279v-8.203h-8.279V44.062L-166.221,44.062z M-157.5,44.5h-9.163v-9.079h9.163V44.5      L-157.5,44.5z"></path><polygon fill="#000000" points="-166.149,44.133 -166.292,43.991 -158.013,35.787 -157.871,35.929     "></polygon></g></g></g><rect x="-179" y="58" fill="none" width="35" height="32.5"></rect><text transform="matrix(1 0 0 1 -179 60.1299)"><tspan x="0" y="0" fill="#000000" font-family="'Helvetica-Bold'" font-size="3">Strokes</tspan><tspan x="0" y="5" fill="#000000" font-family="'Helvetica'" font-size="2.4">Try to keep strokes at 4px</tspan><tspan x="0" y="10" fill="#000000" font-family="'Helvetica'" font-size="2.4">Minimum stroke weight is 2px</tspan><tspan x="0" y="14.5" fill="#000000" font-family="'Helvetica'" font-size="2.4">For thicker strokes use even </tspan><tspan x="0" y="17.5" fill="#000000" font-family="'Helvetica'" font-size="2.4">numbers: 6px, 8px etc.</tspan><tspan x="0" y="22" fill="#000000" font-family="'Helvetica-Bold'" font-size="2.4">Remember to expand strokes </tspan><tspan x="0" y="25" fill="#000000" font-family="'Helvetica-Bold'" font-size="2.4">before saving as an SVG </tspan></text><rect x="-136.5" y="58" fill="none" width="35" height="32.5"></rect><text transform="matrix(1 0 0 1 -136.5 60.1299)"><tspan x="0" y="0" fill="#000000" font-family="'Helvetica-Bold'" font-size="3">Size</tspan><tspan x="0" y="5" fill="#000000" font-family="'Helvetica'" font-size="2.4">Cannot be wider or taller than </tspan><tspan x="0" y="8.5" fill="#000000" font-family="'Helvetica'" font-size="2.4">100px (artboard size)</tspan><tspan x="0" y="13.5" fill="#000000" font-family="'Helvetica'" font-size="2.4">Scale your icon to fill as much of </tspan><tspan x="0" y="16.5" fill="#000000" font-family="'Helvetica'" font-size="2.4">the artboard as possible</tspan></text><rect x="-94" y="58" fill="none" width="35" height="32.5"></rect><text transform="matrix(1 0 0 1 -94 60.1299)"><tspan x="0" y="0" fill="#000000" font-family="'Helvetica-Bold'" font-size="3">Ungroup</tspan><tspan x="0" y="5" fill="#000000" font-family="'Helvetica'" font-size="2.4">If your design has more than one </tspan><tspan x="0" y="8" fill="#000000" font-family="'Helvetica'" font-size="2.4">shape, make sure to ungroup</tspan></text><rect x="-50" y="58" fill="none" width="35" height="32.5"></rect><text transform="matrix(1 0 0 1 -50 60.1299)"><tspan x="0" y="0" fill="#000000" font-family="'Helvetica-Bold'" font-size="3">Save as</tspan><tspan x="0" y="5" fill="#000000" font-family="'Helvetica'" font-size="2.4">Save as .SVG and make sure “Use </tspan><tspan x="0" y="8" fill="#000000" font-family="'Helvetica'" font-size="2.4">Artboards” is checked</tspan></text><text transform="matrix(1.0074 0 0 1 -125.542 30.5933)" fill="#000000" font-family="'Helvetica'" font-size="2.5731">100px</text><text transform="matrix(1.0074 0 0 1 -41 39)" fill="#000000" font-family="'Helvetica-Bold'" font-size="5.1462">.SVG</text><rect x="-126.514" y="34.815" fill="#000000" width="10.261" height="10.185"></rect><rect x="-126.477" y="31.766" fill="#000000" width="0.522" height="2.337"></rect><rect x="-116.813" y="31.766" fill="#000000" width="0.523" height="2.337"></rect><rect x="-127" y="32.337" fill="#000000" width="11.233" height="0.572"></rect><g><rect x="-83.805" y="33.844" fill="#000000" width="10.305" height="10.156"></rect><rect x="-76.809" y="28.707" fill="#000000" width="3.308" height="3.261"></rect></g><rect x="-178.5" y="22.5" fill="#000000" stroke="#FFFFFF" stroke-miterlimit="10" width="30" height="30"></rect><rect x="-136.5" y="22.5" fill="#000000" stroke="#FFFFFF" stroke-miterlimit="10" width="30" height="30"></rect><rect x="-93.5" y="22.5" fill="#000000" stroke="#FFFFFF" stroke-miterlimit="10" width="30" height="30"></rect><rect x="-49.5" y="22.5" fill="#000000" stroke="#FFFFFF" stroke-miterlimit="10" width="30" height="30"></rect></g><g><g><path fill="#000000" d="M51.25,89.185c-0.094,0.094-0.007,0.184-0.011,0.27L51,89.509v4.321l1.736,1.404L58,94.262V89.94    l-0.385-0.741c0-0.005,0.079-0.01,0.078-0.015c-0.443-1.565,0.95-24.815,1.459-33.123c-3.314,0.538-6.461,1.041-9.168,1.459    C50.651,65.858,52.332,88.103,51.25,89.185z"></path><path fill="#000000" d="M13.501,48.321c0.414,5.044,1.965,24.725,1.069,25.62c-0.085,0.085-0.319,0.145-0.311,0.221L14,74.149    v3.334l1.639,1.083L20,77.816v-3.333l-0.598-0.979c-0.144-2.73,0.701-15.91,1.129-22.535L13.501,48.321z"></path><path fill="#000000" d="M90.012,72.217c-0.094,0.095-0.06,0.163-0.048,0.248L90,72.448v3.637l1.515,1.183L96,76.449v-3.637    l-0.674-1.08c-0.139-2.704,0.583-14.606,1.052-22.224c-1.941,0.365-4.469,0.845-7.04,1.327    C89.958,59.244,90.744,71.485,90.012,72.217z"></path><path fill="#000000" d="M92.932,23.27c-7.566,1.449-18.853,2.99-32.667,4.456c-2.404,0.255-3.021,0.921-3.076,1.242L57.231,29    h-0.037c0,1-0.013,3.984-0.457,5.628l-0.013,0.095c-1.56,4.937-4.794,5.478-9.69,6.26c-0.573,0.092-1.18,0.201-1.82,0.31    l-0.115,0.02c-4.871,0.336-5.694,2.502-5.694,8.834c0,4.401,0.737,6.013,1.155,6.572c0.346,0.06,0.709,0.097,1.084,0.097    c2.115,0,28.124-4.346,36.415-5.74c1.585-0.267,21.423-4.01,21.423-4.01s0.344-18.109,0.448-25.402    C100.257,21.568,96.347,22.615,92.932,23.27z"></path><path fill="#000000" d="M97.107,18.247c-3.927-0.307-39.966-0.867-50.619-1.099c-0.743-0.016-1.514-0.023-2.303-0.023    c-11.428,0-27.074,1.586-28.426,1.69c-1.444,0.111-0.859,3.5-1.138,6.333c-0.277,2.833-3.753,3.667-3.753,3.667    s-4.57,1-7.792,1.611C-0.146,31.038,0,32.482,0,32.482v3.778v0.222v4.833c0,0,36.896,13.811,37.577,14.07    c-0.058-0.377-0.503-2.35-0.503-5.236c0-2.292,0.099-4.435,0.657-6.22L7,34.482v-0.875l7.737-1.992c0,0,18.745,5.385,27.683,7.385    c-0.001,0-0.002,0-0.003,0c4.249,0,3.686-0.408,4.249-0.498c3.006-0.48,4.853-0.677,6.091-1.665L20.03,28.744    c-1.084-0.27-1.935-1.33-1.938-2.447l-0.007-3.498c-0.001-0.505,0.18-0.96,0.51-1.291c0.406-0.407,1.008-0.575,1.619-0.455    l34.823,6.841c0.035,0.007,0.068,0.017,0.103,0.026c0.088-0.182,0.202-0.371,0.351-0.562c0.829-1.065,2.356-1.723,4.541-1.955    c13.033-1.383,23.478-2.78,31.026-4.153C95.641,20.419,98,19.729,100,19.215c0-0.053,0-0.104,0-0.15    c0,0.032-0.016-0.315-1.088-0.56C98.547,18.421,97.42,18.271,97.107,18.247z"></path></g></g></svg>